<?xml version="1.0" standalone="no"?>
<!DOCTYPE svg PUBLIC "-//W3C//DTD SVG 20010904//EN"
 "http://www.w3.org/TR/2001/REC-SVG-20010904/DTD/svg10.dtd">
<svg version="1.0" xmlns="http://www.w3.org/2000/svg"
 width="740.000000pt" height="740.000000pt" viewBox="0 0 740.000000 740.000000"
 preserveAspectRatio="xMidYMid meet">
<metadata>
Created by potrace 1.14, written by Peter Selinger 2001-2017
</metadata>
<g transform="translate(0.000000,740.000000) scale(0.100000,-0.100000)"
fill="#000000" stroke="none">
<path d="M4895 6960 c3 -5 1 -10 -5 -10 -6 0 -8 -5 -5 -10 8 -13 -14 -110 -25
-110 -4 0 -7 -12 -7 -27 l0 -27 12 25 c7 13 18 49 25 79 6 30 14 63 17 73 2 9
-1 17 -7 17 -6 0 -8 -4 -5 -10z"/>
<path d="M4780 6885 c-25 -13 -41 -24 -37 -25 11 0 87 39 87 45 0 7 0 7 -50
-20z"/>
<path d="M4665 6820 c-3 -5 -1 -10 4 -10 6 0 11 5 11 10 0 6 -2 10 -4 10 -3 0
-8 -4 -11 -10z"/>
<path d="M2922 6759 c-115 -22 -222 -104 -267 -202 -35 -76 -40 -144 -20 -275
22 -141 17 -213 -21 -282 -31 -58 -117 -141 -175 -171 -22 -11 -39 -23 -39
-28 0 -10 94 -37 160 -46 108 -15 276 45 363 132 79 76 100 128 107 258 4 94
9 115 29 143 13 18 25 32 26 30 2 -2 -5 -29 -15 -60 -42 -128 -33 -313 21
-425 33 -69 122 -158 191 -193 34 -16 62 -29 63 -28 2 2 0 29 -3 61 -4 54 -7
59 -36 71 -72 30 -119 126 -92 190 28 67 76 68 134 2 17 -20 33 -36 35 -36 2
0 7 34 10 75 4 42 14 89 22 105 23 45 121 145 178 183 51 33 159 77 189 77 36
0 137 -137 163 -218 6 -22 5 -23 -14 -12 -31 16 -106 9 -106 -10 0 -11 15 -16
55 -20 44 -4 57 -9 66 -28 18 -37 27 -10 32 100 5 94 4 100 -27 162 -17 35
-47 78 -67 95 -49 44 -162 99 -242 117 -84 20 -221 14 -309 -14 l-63 -20 0 32
c0 86 -57 172 -142 213 -50 24 -145 35 -206 22z m161 -36 c11 -10 -13 -32 -29
-26 -20 8 -17 33 4 33 10 0 22 -3 25 -7z m86 -54 c21 -23 34 -59 21 -59 -8 0
-70 67 -70 75 0 13 32 3 49 -16z m490 -213 c19 -7 37 -18 39 -25 3 -10 -16
-12 -86 -10 -97 4 -118 12 -88 35 24 17 88 17 135 0z m255 -108 c22 -30 3 -48
-24 -23 -11 10 -20 24 -20 32 0 21 27 15 44 -9z"/>
<path d="M4809 6723 c-13 -16 -12 -17 4 -4 9 7 17 15 17 17 0 8 -8 3 -21 -13z"/>
<path d="M4314 6669 c-3 -5 1 -11 8 -13 68 -19 103 -26 163 -30 l70 -5 -87 13
c-48 8 -100 21 -117 29 -18 9 -33 11 -37 6z"/>
<path d="M4550 6660 c8 -5 20 -10 25 -10 6 0 3 5 -5 10 -8 5 -19 10 -25 10 -5
0 -3 -5 5 -10z"/>
<path d="M4690 6648 c-14 -6 -50 -14 -80 -18 l-55 -7 50 -1 c28 -1 70 7 95 18
25 10 38 19 30 19 -8 0 -26 -5 -40 -11z"/>
<path d="M3558 6094 c-28 -15 -54 -51 -44 -61 3 -3 13 0 21 7 9 7 39 17 67 21
28 5 56 13 61 18 30 30 -55 42 -105 15z"/>
<path d="M3869 6019 c-13 -25 -4 -85 15 -92 31 -12 46 35 25 74 -10 19 -9 19
10 9 13 -7 21 -7 21 -1 0 11 -32 31 -49 31 -6 0 -15 -9 -22 -21z"/>
<path d="M5459 6010 c-14 -11 -38 -37 -53 -59 l-27 -39 -122 5 c-67 3 -124 8
-127 10 -3 2 6 12 18 22 l23 17 -25 23 c-14 13 -26 18 -30 12 -4 -5 -31 -15
-62 -21 -52 -11 -57 -10 -79 10 l-23 22 -14 -29 c-19 -40 -47 -40 -96 2 -41
36 -61 36 -23 1 11 -10 21 -30 23 -45 2 -19 10 -27 28 -29 34 -5 54 -22 40
-36 -15 -15 -12 -23 12 -29 21 -6 21 -7 3 -27 -10 -11 -13 -20 -7 -20 7 0 12
-7 12 -15 0 -14 4 -13 38 0 150 63 323 -68 257 -195 -13 -25 -14 -34 -5 -40 9
-5 9 -9 1 -14 -6 -4 -11 -2 -11 4 0 6 -20 -5 -43 -24 -24 -20 -74 -52 -111
-71 l-67 -35 -54 35 c-53 33 -69 53 -86 104 -8 23 -8 23 -3 -4 3 -16 6 -38 7
-47 1 -9 4 -15 8 -12 10 6 30 -22 21 -30 -4 -4 -2 -7 3 -5 18 4 45 -13 38 -24
-3 -6 -1 -7 5 -3 7 4 21 1 33 -7 20 -14 20 -16 2 -26 -10 -6 -13 -11 -8 -11 6
0 21 7 33 16 12 8 28 13 35 11 8 -4 7 -6 -3 -6 -9 -1 -24 -10 -34 -22 -14 -16
-25 -20 -48 -15 -17 3 -39 6 -50 6 -10 0 -17 3 -15 8 3 4 -5 8 -16 9 -186 20
-231 29 -221 44 3 5 -2 6 -10 3 -9 -3 -16 -2 -16 4 0 11 87 35 100 27 5 -3 12
-1 15 5 5 7 11 8 19 1 6 -5 17 -6 25 -2 9 6 4 11 -16 20 -16 6 -34 20 -41 31
-11 18 -10 20 18 20 16 0 30 5 30 11 0 8 -19 10 -60 6 l-60 -5 0 30 c0 30 -1
30 -18 15 -23 -21 -36 -22 -28 -1 3 8 2 13 -3 10 -5 -3 -23 -3 -40 0 -31 6
-31 7 -14 26 22 24 27 73 6 56 -10 -8 -12 -7 -8 4 6 16 -20 32 -36 23 -5 -4
-6 1 -3 9 3 9 10 13 15 10 5 -3 6 2 3 10 -7 18 7 21 23 5 8 -8 13 -7 18 3 5 7
5 10 0 6 -4 -4 -14 -3 -21 3 -7 6 -18 8 -24 4 -14 -8 -60 -101 -59 -117 0 -7
7 1 14 17 7 17 17 30 22 30 4 0 14 4 21 9 12 7 12 4 2 -14 -10 -18 -14 -20
-22 -9 -8 11 -9 10 -4 -4 4 -12 -3 -27 -19 -43 -45 -45 -29 -106 40 -157 59
-42 231 -102 355 -123 128 -21 434 -26 520 -8 l65 13 -58 -5 c-61 -5 -90 5
-107 35 -8 16 3 32 68 100 42 45 83 81 91 81 8 0 11 6 7 15 -3 9 4 36 16 60
24 49 52 59 64 23 7 -22 8 -21 23 12 9 19 20 40 24 47 10 16 34 6 40 -18 8
-30 34 -23 41 12 9 45 8 49 -9 43 -19 -8 -20 10 -1 25 12 10 17 8 25 -7 7 -13
18 -18 29 -15 24 6 47 -45 37 -78 -6 -17 -4 -21 8 -16 20 7 67 -46 67 -75 0
-15 -5 -19 -20 -15 -11 3 -20 1 -20 -4 0 -5 -10 -14 -22 -19 -58 -26 -83 -47
-80 -68 2 -15 -2 -22 -12 -22 -11 0 -16 -10 -16 -31 0 -27 3 -30 23 -24 39 12
162 91 159 103 -1 7 3 11 10 10 7 -2 20 13 30 32 21 41 26 210 7 210 -14 0
-160 60 -237 96 -67 33 -82 48 -82 87 0 39 -24 77 -48 77 -9 0 -29 -9 -43 -20z
m39 -74 c-10 -123 -93 -278 -210 -394 -48 -47 -64 -57 -64 -43 0 11 3 18 7 15
4 -2 9 21 11 51 4 47 14 68 80 167 41 62 95 150 118 195 24 45 48 79 53 76 5
-3 7 -33 5 -67z m-220 -164 c2 -7 -6 -12 -17 -12 -21 0 -27 11 -14 24 9 9 26
2 31 -12z m521 -245 c14 -18 4 -27 -31 -27 -32 0 -37 14 -10 29 23 14 28 13
41 -2z m-644 -97 c-3 -5 -12 -10 -18 -10 -7 0 -6 4 3 10 19 12 23 12 15 0z
m-88 -26 c-3 -3 -12 -4 -19 -1 -8 3 -5 6 6 6 11 1 17 -2 13 -5z"/>
<path d="M3575 5994 c-14 -15 -25 -34 -25 -42 0 -9 8 -5 21 12 11 14 26 26 32
26 8 0 7 -4 -1 -12 -15 -15 -15 -61 0 -76 19 -19 36 -14 55 14 16 25 16 27 0
39 -18 13 -24 31 -7 20 17 -11 11 11 -8 28 -26 23 -39 21 -67 -9z"/>
<path d="M4585 5986 c10 -14 19 -26 22 -26 7 0 -17 39 -28 46 -6 3 -3 -5 6
-20z"/>
<path d="M1877 5916 c-6 -61 -33 -120 -71 -155 -14 -14 -26 -29 -26 -34 0 -18
51 36 77 80 22 38 46 163 31 163 -3 0 -8 -24 -11 -54z"/>
<path d="M3253 5944 c-24 -10 -13 -21 17 -16 32 5 39 -8 15 -28 -8 -7 -12 -16
-9 -22 3 -5 12 -4 20 3 23 19 26 4 4 -24 -25 -31 -25 -44 -1 -56 24 -13 33 -4
18 20 -16 26 -1 35 24 13 20 -18 20 -18 14 11 -14 61 -39 100 -65 102 -14 1
-31 -1 -37 -3z"/>
<path d="M3800 5934 c0 -20 23 -79 42 -106 24 -34 23 -52 -2 -45 -11 3 -20 1
-20 -5 0 -16 52 -4 64 14 8 13 6 22 -11 40 -12 13 -33 43 -47 68 -14 25 -26
40 -26 34z"/>
<path d="M4546 5801 c-11 -12 -14 -21 -7 -26 11 -6 12 -5 15 18 1 6 8 11 15 9
7 -1 10 2 6 8 -8 13 -9 13 -29 -9z"/>
<path d="M4685 5759 c-4 -6 -14 -8 -22 -4 -13 4 -14 3 -3 -10 7 -9 13 -14 14
-13 1 2 8 11 15 21 7 9 11 17 8 17 -3 0 -9 -5 -12 -11z"/>
<path d="M4762 5744 c-7 -8 -8 -14 -3 -14 10 0 25 19 20 25 -2 1 -10 -3 -17
-11z"/>
<path d="M4860 5752 c0 -6 6 -12 13 -15 9 -3 7 -9 -5 -24 -10 -10 -20 -35 -23
-54 l-6 -34 15 39 c8 21 27 51 42 67 15 16 23 29 16 29 -6 0 -14 -5 -17 -10
-5 -8 -11 -7 -21 1 -9 7 -14 8 -14 1z"/>
<path d="M4786 5732 c-3 -5 1 -9 9 -9 8 0 12 4 9 9 -3 4 -7 8 -9 8 -2 0 -6 -4
-9 -8z"/>
<path d="M1736 5663 c-6 -14 -5 -15 5 -6 7 7 10 15 7 18 -3 3 -9 -2 -12 -12z"/>
<path d="M4832 5600 c0 -14 2 -19 5 -12 2 6 2 18 0 25 -3 6 -5 1 -5 -13z"/>
<path d="M4364 5575 c2 -11 10 -48 16 -82 7 -35 20 -68 28 -75 13 -11 14 -11
8 0 -4 7 -9 25 -11 40 -2 15 -2 21 1 15 9 -20 24 -15 17 4 -6 15 -5 16 9 3 14
-13 14 -16 -1 -27 -9 -7 -11 -13 -5 -13 6 0 16 6 22 13 8 9 1 23 -26 52 -21
22 -43 51 -50 65 -9 18 -11 19 -8 5z m52 -82 c-7 -7 -26 7 -26 19 0 6 6 6 15
-2 9 -7 13 -15 11 -17z"/>
<path d="M1340 5535 c-152 -26 -238 -61 -284 -115 -30 -37 -33 -61 -9 -101 20
-34 28 -36 30 -9 4 51 91 121 196 157 95 34 177 40 246 19 64 -19 61 -18 61
-7 0 5 -8 12 -17 15 -10 3 -4 4 12 3 21 -1 38 6 57 26 l27 27 -122 -1 c-67 -1
-156 -7 -197 -14z m165 -7 c-27 -5 -68 -11 -90 -13 -22 -2 -50 -6 -61 -10 -13
-4 -25 -2 -29 5 -5 9 -1 10 13 6 11 -4 23 -2 27 4 5 8 21 9 44 6 20 -4 31 -3
25 1 -7 4 18 9 55 9 l66 2 -50 -10z m103 -5 c-6 -7 -25 -12 -42 -11 l-31 1 35
5 c33 5 34 5 10 13 -23 7 -22 7 7 6 25 -1 30 -4 21 -14z m-293 -31 c-2 -3 -29
-4 -60 -3 -35 0 -54 -3 -50 -9 3 -6 18 -8 33 -4 33 7 10 -10 -28 -20 -19 -6
-21 -5 -10 3 8 6 11 11 5 11 -15 0 -37 -16 -35 -26 1 -5 -4 -10 -12 -12 -8 -2
-9 -1 -3 5 6 4 10 15 10 23 -1 19 32 39 65 40 14 0 31 4 39 9 13 9 56 -8 46
-17z m212 13 c0 -11 -4 -12 -14 -4 -7 6 -13 13 -13 15 0 2 6 4 13 4 8 0 14 -7
14 -15z m-391 -48 c-17 -12 -17 -15 -2 -29 14 -14 14 -17 0 -22 -8 -3 -12 -2
-9 4 3 6 1 10 -4 10 -6 0 -11 -6 -11 -13 0 -7 -7 -22 -15 -33 -13 -16 -14 -16
-9 -1 3 9 1 17 -5 17 -14 0 -25 -45 -16 -67 4 -11 3 -14 -3 -8 -13 14 -22 69
-14 80 11 15 42 17 42 4 0 -7 3 -9 6 -6 4 4 1 13 -5 21 -9 11 -9 16 0 22 8 5
9 3 4 -6 -5 -8 -3 -11 6 -8 8 3 14 9 14 14 0 15 15 34 28 34 6 0 3 -6 -7 -13z"/>
<path d="M1706 5542 c-10 -16 17 -20 44 -5 18 9 20 13 8 13 -9 0 -20 -5 -24
-11 -5 -8 -9 -8 -14 1 -5 8 -10 8 -14 2z"/>
<path d="M1839 5536 c-1 -3 -2 -9 -3 -13 -1 -5 -4 -13 -8 -18 -12 -19 8 -38
33 -32 13 3 41 2 62 -2 44 -11 61 4 21 19 -15 6 -24 13 -21 17 9 9 68 -18 61
-28 -3 -5 0 -9 5 -9 6 0 11 5 11 10 0 6 5 10 12 10 8 0 6 -6 -5 -17 -13 -14
-33 -16 -108 -14 -51 1 -101 6 -110 12 -15 7 -17 6 -13 -6 6 -16 17 -18 75
-15 56 2 159 -19 207 -43 24 -11 52 -36 64 -55 20 -33 22 -34 35 -16 20 27 8
75 -24 101 -15 12 -30 20 -35 17 -4 -3 -8 -1 -8 4 0 20 -114 57 -170 56 -39
-1 -48 1 -30 6 23 7 23 8 3 9 -12 1 -28 4 -37 7 -9 3 -17 3 -17 0z m77 -49 c3
-3 -9 -4 -26 -2 -17 1 -36 7 -42 13 -7 7 0 8 27 2 20 -4 39 -10 41 -13z m151
-29 c15 -6 32 -12 36 -12 5 -1 14 -9 21 -18 7 -10 17 -14 22 -10 5 4 6 3 2 -2
-4 -4 -2 -20 3 -34 7 -17 6 -29 -1 -36 -8 -8 -9 -6 -4 8 5 13 4 17 -3 13 -6
-4 -20 4 -31 18 -11 13 -22 22 -26 20 -3 -3 -4 -2 -1 2 7 8 -49 33 -79 34 -17
1 -17 2 -3 6 9 2 17 9 17 14 0 12 13 11 47 -3z"/>
<path d="M2074 5435 c11 -8 27 -15 35 -15 9 0 3 7 -13 15 -36 19 -47 19 -22 0z"/>
<path d="M2110 5406 c0 -2 7 -9 15 -16 13 -11 14 -10 9 4 -5 14 -24 23 -24 12z"/>
<path d="M4820 5516 c0 -8 4 -17 9 -20 5 -4 7 3 4 14 -6 23 -13 26 -13 6z"/>
<path d="M1795 5480 c3 -5 8 -10 11 -10 2 0 4 5 4 10 0 6 -5 10 -11 10 -5 0
-7 -4 -4 -10z"/>
<path d="M4466 5442 c-2 -4 4 -8 14 -8 10 0 16 4 14 8 -3 4 -9 8 -14 8 -5 0
-11 -4 -14 -8z"/>
<path d="M4512 5404 c-1 -15 2 -23 8 -19 6 4 7 11 4 17 -8 13 37 0 51 -15 7
-6 7 -8 0 -5 -15 8 -49 -28 -35 -37 6 -4 17 0 23 10 15 19 48 10 40 -11 -4
-10 0 -12 12 -8 10 4 21 1 26 -7 5 -8 9 -9 9 -3 0 6 -11 19 -24 30 -14 10 -23
21 -20 25 2 4 -2 9 -9 12 -6 3 -28 12 -47 20 -35 15 -36 15 -38 -9z"/>
<path d="M4890 5426 c0 -2 8 -10 18 -17 15 -13 16 -12 3 4 -13 16 -21 21 -21
13z"/>
<path d="M4443 5367 c-3 -6 -1 -7 4 -4 6 4 13 0 16 -7 4 -10 0 -14 -13 -11
-24 5 -20 -8 31 -96 45 -79 95 -129 169 -173 101 -60 260 -113 260 -88 0 6 7
18 16 26 14 15 13 16 -7 16 -18 0 -19 3 -9 14 9 11 18 12 37 5 19 -7 24 -6 21
3 -3 7 -20 18 -39 25 -26 9 -29 12 -11 12 12 1 22 6 22 11 0 6 8 10 18 10 16
-1 16 -1 -1 -14 -25 -19 0 -27 38 -12 l30 13 -38 12 c-74 25 -252 134 -265
163 -2 4 -9 2 -17 -5 -7 -7 -11 -15 -8 -19 7 -13 -12 -9 -32 6 -11 8 -26 11
-35 8 -12 -5 -11 -2 3 12 9 9 17 21 17 25 0 12 -26 32 -33 25 -3 -3 -15 0 -27
6 -16 8 -25 9 -33 1 -7 -7 -14 -7 -24 1 -10 8 -17 8 -25 0 -9 -9 -8 -12 5 -12
9 0 17 -4 17 -8 0 -5 -7 -9 -15 -9 -17 0 -28 24 -14 32 5 4 6 11 3 17 -5 7 -2
8 6 3 8 -5 11 -4 7 2 -9 15 -66 22 -74 10z m167 -67 c0 -4 -11 -10 -25 -12
-21 -4 -23 -3 -14 13 9 17 39 16 39 -1z m-90 -17 c24 6 25 3 4 -27 -18 -29 -3
-44 21 -20 18 19 30 11 39 -26 6 -25 6 -25 -5 -2 -7 12 -16 22 -21 22 -12 0
-10 -7 9 -38 17 -26 17 -27 -2 -12 -17 14 -18 13 -12 -2 3 -10 5 -18 2 -18 -7
0 -47 61 -49 75 -1 8 -9 22 -17 32 -28 32 -34 50 -11 29 13 -11 30 -16 42 -13z
m80 -39 c0 -8 -4 -12 -10 -9 -5 3 -10 10 -10 16 0 5 5 9 10 9 6 0 10 -7 10
-16z m160 -25 c0 -5 6 -9 13 -9 8 0 22 -9 32 -20 22 -25 13 -26 -23 -3 l-27
17 19 -22 19 -22 -53 5 c-55 6 -81 15 -41 15 12 0 24 6 27 14 3 9 13 12 22 9
10 -4 5 7 -13 27 l-30 33 28 -18 c15 -9 27 -21 27 -26z m-110 9 c0 -19 -2 -20
-10 -8 -13 19 -13 30 0 30 6 0 10 -10 10 -22z m-14 -45 c-3 -3 -8 2 -12 11 -3
9 -10 13 -15 10 -5 -3 -6 2 -3 11 6 14 9 13 21 -5 8 -12 12 -24 9 -27z m8 -22
c3 -4 17 -7 31 -6 14 2 25 -1 25 -6 0 -6 5 -7 10 -4 6 3 10 -1 10 -10 0 -9 -4
-13 -10 -10 -5 3 -10 -1 -10 -9 0 -9 7 -16 15 -16 8 0 12 -6 9 -14 -4 -10 10
-21 45 -37 28 -12 48 -25 46 -30 -5 -8 -68 22 -89 41 -5 5 -14 6 -21 4 -20 -8
-47 36 -33 53 6 7 8 17 4 21 -8 7 -13 8 -41 11 -8 0 -15 6 -15 11 0 12 17 13
24 1z m211 -11 c6 -20 -14 -50 -34 -50 -15 0 -14 43 1 58 17 17 26 15 33 -8z
m-226 -8 c39 -18 40 -20 23 -35 -18 -16 -20 -16 -35 1 -10 10 -17 24 -17 31 0
8 -6 11 -16 7 -8 -3 -12 -2 -9 4 8 13 6 13 54 -8z m171 -11 c0 -6 -4 -12 -8
-15 -5 -3 -9 1 -9 9 0 8 4 15 9 15 4 0 8 -4 8 -9z m100 -6 c-7 -9 -15 -13 -19
-10 -3 3 1 10 9 15 21 14 24 12 10 -5z m30 -15 c-8 -5 -19 -10 -25 -10 -5 0
-3 5 5 10 8 5 20 10 25 10 6 0 3 -5 -5 -10z m-120 -36 c0 -8 7 -14 15 -14 8 0
15 -4 15 -10 0 -12 -11 -13 -26 -2 -13 9 -26 54 -13 46 5 -3 9 -12 9 -20z
m190 22 c0 -2 -9 -6 -20 -9 -11 -3 -18 -1 -14 4 5 9 34 13 34 5z m-220 -26
c18 -12 2 -12 -25 0 -13 6 -15 9 -5 9 8 0 22 -4 30 -9z m87 4 c-3 -3 -12 -4
-19 -1 -8 3 -5 6 6 6 11 1 17 -2 13 -5z m1 -63 c3 -8 -1 -12 -9 -9 -7 2 -15
10 -17 17 -3 8 1 12 9 9 7 -2 15 -10 17 -17z"/>
<path d="M4530 5211 c0 -5 5 -13 10 -16 6 -3 10 -2 10 4 0 5 -4 13 -10 16 -5
3 -10 2 -10 -4z"/>
<path d="M4730 5180 c0 -5 7 -10 16 -10 8 0 12 5 9 10 -3 6 -10 10 -16 10 -5
0 -9 -4 -9 -10z"/>
<path d="M4610 5134 c0 -3 7 -12 15 -20 13 -13 15 -13 15 -1 0 8 -7 17 -15 21
-8 3 -15 3 -15 0z"/>
<path d="M3220 5350 c0 -5 7 -7 15 -4 8 4 15 8 15 10 0 2 -7 4 -15 4 -8 0 -15
-4 -15 -10z"/>
<path d="M3690 5350 c0 -5 4 -10 9 -10 5 0 7 -10 4 -22 -4 -21 -3 -21 7 -5 6
10 9 25 6 33 -6 16 -26 19 -26 4z"/>
<path d="M960 5324 c0 -38 33 -119 75 -184 50 -76 138 -165 154 -155 7 4 10 1
9 -7 -2 -7 3 -12 10 -10 8 1 11 -2 8 -7 -11 -17 138 -102 163 -93 8 3 11 0 7
-6 -8 -13 72 -62 100 -61 16 0 16 1 -3 9 -13 5 -23 14 -23 21 0 6 -7 9 -15 5
-8 -3 -14 0 -12 7 1 7 -6 11 -15 11 -10 -1 -16 3 -15 9 1 5 -39 37 -88 71
-102 69 -126 89 -202 164 -54 54 -68 80 -35 67 9 -4 22 -8 28 -8 7 0 11 -11 9
-24 -1 -12 1 -23 5 -23 11 0 74 -60 64 -60 -5 -1 4 -8 19 -16 32 -17 52 -9 26
9 -51 38 -100 90 -97 105 4 21 70 42 76 24 2 -7 11 -12 19 -12 9 0 22 -8 29
-17 11 -15 15 -15 22 -5 7 11 10 10 16 -3 9 -24 7 -32 -4 -15 -6 9 -10 10 -10
3 0 -17 14 -23 29 -13 8 4 10 13 6 21 -5 8 6 0 22 -17 57 -58 63 -89 16 -78
-18 5 -22 3 -18 -9 4 -9 -1 -16 -14 -20 -28 -7 -27 -25 2 -30 l22 -4 -22 -2
c-13 0 -23 -6 -23 -11 0 -6 11 -8 25 -4 17 4 39 -3 75 -25 79 -49 120 -62 203
-68 42 -3 77 -4 77 -1 0 3 -21 13 -47 23 -67 25 -182 114 -250 193 -32 37 -58
68 -59 70 0 1 -37 13 -80 26 -44 13 -110 38 -147 55 -74 35 -90 39 -61 15 10
-8 12 -12 4 -8 -12 5 -12 4 -3 -6 6 -7 9 -19 6 -26 -3 -8 0 -14 7 -14 6 0 8
-5 4 -11 -10 -16 -35 35 -36 72 -1 16 -5 29 -10 29 -4 0 -17 15 -28 33 -16 26
-20 28 -20 11z m190 -132 l25 -12 -25 7 c-14 3 -32 6 -40 6 -17 0 -40 15 -40
27 0 8 9 4 80 -28z m-14 -15 c12 -12 -35 -12 -51 -1 -16 12 -15 13 15 9 17 -2
34 -6 36 -8z m297 -214 c-30 -24 -19 -32 13 -8 24 18 35 19 32 3 -2 -7 4 -14
12 -14 8 -1 19 -2 25 -3 5 0 4 -6 -3 -13 -19 -19 -14 -28 16 -28 15 0 45 -7
67 -15 33 -13 34 -15 10 -11 -128 21 -211 55 -201 82 4 11 1 14 -13 9 -11 -3
-25 1 -34 10 -9 8 -24 16 -34 16 -17 1 -17 1 0 6 10 3 27 -3 38 -13 15 -13 22
-15 31 -6 15 15 32 16 23 2 -8 -12 5 -13 24 -1 11 7 11 10 0 17 -8 5 -18 9
-24 10 -5 0 -16 2 -24 2 -11 2 -11 5 -1 16 10 13 16 11 41 -11 l30 -27 -28
-23z"/>
<path d="M1440 4940 c-8 -5 -10 -10 -5 -11 6 0 20 -2 32 -3 18 -2 20 0 12 11
-13 15 -19 16 -39 3z"/>
<path d="M3251 5330 c0 -8 6 -26 15 -40 l15 -25 -7 25 c-3 14 -10 32 -15 40
-7 13 -8 13 -8 0z"/>
<path d="M3060 5320 c-18 -4 -21 -8 -10 -12 17 -6 58 6 44 14 -5 3 -20 2 -34
-2z"/>
<path d="M4654 5296 c-1 -14 5 -27 14 -31 23 -9 34 17 15 37 -22 24 -28 23
-29 -6z"/>
<path d="M3100 5291 c0 -6 4 -13 10 -16 6 -3 7 1 4 9 -7 18 -14 21 -14 7z"/>
<path d="M3070 5281 c0 -6 4 -13 10 -16 6 -3 7 1 4 9 -7 18 -14 21 -14 7z"/>
<path d="M3250 5274 c0 -6 7 -19 16 -30 14 -18 14 -18 3 6 -14 31 -19 36 -19
24z"/>
<path d="M3700 5258 c0 -19 2 -20 10 -8 13 19 13 30 0 30 -5 0 -10 -10 -10
-22z"/>
<path d="M3731 5264 c0 -11 3 -14 6 -6 3 7 2 16 -1 19 -3 4 -6 -2 -5 -13z"/>
<path d="M3104 5218 c8 -18 21 -51 30 -73 8 -22 15 -35 15 -28 1 19 -39 122
-50 129 -5 3 -3 -10 5 -28z"/>
<path d="M3710 5135 c-3 -55 -4 -102 -2 -104 9 -16 12 20 10 105 l-3 99 -5
-100z"/>
<path d="M5755 5190 c-16 -16 -31 -28 -33 -25 -7 7 -82 -34 -82 -45 0 -6 -5
-10 -11 -10 -5 0 -7 5 -3 11 4 7 -3 6 -17 -2 -13 -7 -62 -23 -109 -35 l-85
-22 56 2 c32 0 52 4 45 8 -8 6 -8 8 1 8 17 0 23 -14 14 -29 -5 -8 -17 -11 -30
-6 -12 4 -21 2 -21 -4 0 -6 -10 -11 -22 -11 -19 0 -20 2 -8 10 11 8 8 9 -12 4
-19 -4 -28 -2 -28 6 0 16 -150 6 -161 -11 -4 -7 -14 -9 -23 -6 -9 4 -26 3 -38
-2 -18 -6 -5 -10 52 -16 51 -5 80 -13 92 -25 15 -16 13 -18 -28 -27 -36 -8
-42 -8 -33 3 9 11 2 13 -38 10 -26 -2 -37 -2 -25 1 22 4 21 6 -14 25 -26 14
-47 18 -71 13 -26 -5 -33 -3 -33 10 0 13 -3 13 -20 3 -11 -7 -20 -18 -20 -25
0 -7 -8 -13 -17 -13 -15 0 -16 -2 -3 -10 12 -8 8 -10 -15 -11 -27 -1 -26 -2
10 -10 22 -4 53 -6 69 -2 19 3 26 2 22 -6 -11 -17 37 -31 102 -31 70 0 102 8
102 25 0 8 15 17 33 20 99 21 218 69 287 114 73 48 174 141 154 141 -6 0 -23
-13 -39 -30z m-87 -73 c-36 -37 -82 -65 -97 -59 -8 2 -11 0 -7 -6 3 -5 -1 -13
-9 -16 -12 -4 -13 -2 -6 13 6 10 8 21 5 24 -3 3 8 13 25 21 35 18 45 20 36 6
-12 -20 12 -9 35 15 13 14 27 25 32 25 5 0 -1 -11 -14 -23z m-268 -82 c30 -8
69 -13 85 -10 29 5 29 4 -5 -9 -19 -8 -44 -15 -55 -15 l-20 0 20 9 c17 8 15 9
-10 7 -16 -1 -28 -6 -27 -11 6 -16 -29 -29 -41 -16 -9 10 -9 11 2 5 9 -5 12
-3 9 6 -3 8 -22 17 -44 21 -29 5 -24 6 21 3 59 -3 60 -3 25 10 -48 18 -27 18
40 0z m-307 -37 c3 -10 7 -10 20 0 11 10 23 10 49 3 l33 -11 -40 5 c-28 3 -35
2 -25 -5 13 -9 13 -10 0 -10 -13 0 -13 -1 0 -10 8 -5 39 -10 69 -10 30 0 52
-3 49 -6 -20 -19 -158 6 -158 28 0 5 -5 8 -11 8 -6 0 -9 -7 -6 -14 4 -10 1
-13 -9 -9 -17 6 -17 10 -1 28 15 18 24 19 30 3z m74 -24 c-3 -3 -12 -4 -19 -1
-8 3 -5 6 6 6 11 1 17 -2 13 -5z"/>
<path d="M5572 5081 c-11 -7 -11 -9 1 -14 9 -3 21 1 27 9 10 11 10 14 -1 14
-8 0 -20 -4 -27 -9z"/>
<path d="M3743 5145 c0 -33 2 -45 4 -27 2 18 2 45 0 60 -2 15 -4 0 -4 -33z"/>
<path d="M3310 5181 c0 -21 4 -26 19 -23 9 2 12 -2 7 -13 -3 -9 -2 -14 3 -11
13 9 23 -25 11 -39 -7 -9 -5 -16 7 -26 16 -13 17 -12 5 3 -7 9 -9 19 -4 22 12
7 116 -100 108 -112 -3 -6 -1 -14 5 -18 8 -4 9 -3 5 4 -4 7 -1 12 9 12 9 0
-13 28 -55 70 -38 38 -70 74 -70 79 0 5 -11 22 -25 37 -14 15 -25 22 -25 15z"/>
<path d="M1173 5163 c-7 -2 -13 -13 -13 -24 0 -13 7 -19 24 -19 14 0 28 -4 31
-10 3 -5 1 -10 -4 -10 -6 0 -11 -7 -11 -16 0 -8 4 -13 9 -9 6 3 14 -2 19 -11
9 -16 12 -16 36 3 l26 21 -27 10 c-20 8 -23 11 -9 11 14 1 8 9 -22 31 -23 17
-43 30 -44 29 -2 0 -9 -3 -15 -6z m27 -13 c0 -5 -2 -10 -4 -10 -3 0 -8 5 -11
10 -3 6 -1 10 4 10 6 0 11 -4 11 -10z m65 -70 c-3 -5 -10 -10 -16 -10 -5 0 -9
5 -9 10 0 6 7 10 16 10 8 0 12 -4 9 -10z"/>
<path d="M1084 5141 c20 -22 26 -25 26 -13 0 4 -10 13 -22 21 -23 14 -23 14
-4 -8z"/>
<path d="M3182 5100 c0 -8 4 -26 8 -40 6 -20 8 -21 8 -5 0 11 -3 29 -8 40 -5
12 -8 14 -8 5z"/>
<path d="M1326 5085 c4 -8 13 -15 21 -15 13 0 13 3 3 15 -7 8 -16 15 -21 15
-5 0 -6 -7 -3 -15z"/>
<path d="M3152 5080 c0 -14 2 -19 5 -12 2 6 2 18 0 25 -3 6 -5 1 -5 -13z"/>
<path d="M5115 5063 c-5 -5 -11 -14 -12 -20 -4 -17 42 -16 92 2 l40 14 -35 1
c-19 0 -44 3 -55 5 -11 3 -24 2 -30 -2z m25 -13 c0 -5 -4 -10 -10 -10 -5 0
-10 5 -10 10 0 6 5 10 10 10 6 0 10 -4 10 -10z"/>
<path d="M1360 5050 c0 -5 5 -10 11 -10 5 0 7 5 4 10 -3 6 -8 10 -11 10 -2 0
-4 -4 -4 -10z"/>
<path d="M3162 4965 c1 -85 1 -87 8 -32 4 31 4 72 0 90 -6 22 -8 5 -8 -58z"/>
<path d="M3721 5013 c-7 -16 -11 -29 -9 -29 10 -5 -40 -46 -66 -53 -17 -5 -23
-10 -13 -10 10 -1 31 6 47 14 27 14 32 21 29 41 0 4 4 10 9 13 10 6 27 51 19
51 -2 0 -9 -12 -16 -27z"/>
<path d="M3203 4985 c0 -22 2 -30 4 -17 2 12 2 30 0 40 -3 9 -5 -1 -4 -23z"/>
<path d="M3682 4995 c-6 -14 -8 -25 -3 -25 8 0 23 41 17 47 -1 2 -8 -8 -14
-22z"/>
<path d="M3420 5006 c0 -2 8 -10 18 -17 15 -13 16 -12 3 4 -13 16 -21 21 -21
13z"/>
<path d="M1260 4996 c0 -4 7 -14 15 -22 8 -9 15 -11 15 -6 0 5 -7 15 -15 22
-8 7 -15 9 -15 6z"/>
<path d="M5284 4988 c10 -6 22 -6 26 -2 5 5 -3 10 -18 11 -22 1 -24 0 -8 -9z"/>
<path d="M3517 4968 c4 -7 8 -17 8 -23 0 -10 39 -23 70 -23 16 0 15 2 -5 8
-14 4 -18 9 -10 9 8 1 -1 10 -20 21 -41 23 -54 25 -43 8z m46 -25 c-7 -2 -19
-2 -25 0 -7 3 -2 5 12 5 14 0 19 -2 13 -5z"/>
<path d="M3630 4950 c-18 -12 -2 -12 25 0 13 6 15 9 5 9 -8 0 -22 -4 -30 -9z"/>
<path d="M3144 4800 c-6 -22 -7 -37 -3 -34 5 3 9 12 9 20 0 8 4 13 9 10 4 -3
6 6 3 19 -2 14 -5 25 -6 25 -1 0 -7 -18 -12 -40z"/>
<path d="M1548 4783 c6 -2 18 -2 25 0 6 3 1 5 -13 5 -14 0 -19 -2 -12 -5z"/>
<path d="M3143 4745 c-3 -9 -3 -18 -1 -21 3 -3 8 4 11 16 6 23 -1 27 -10 5z"/>
<path d="M3116 4724 c-4 -9 -4 -19 -1 -22 2 -3 7 3 11 12 4 9 4 19 1 22 -2 3
-7 -3 -11 -12z"/>
<path d="M5929 4660 c46 -89 47 -96 9 -113 -18 -8 -51 -19 -73 -25 -22 -5 -64
-19 -93 -31 -60 -24 -60 -13 -1 25 25 15 61 27 100 31 l61 6 -23 18 c-33 25
-56 24 -120 -8 -176 -90 -199 -350 -42 -506 66 -66 133 -90 238 -85 57 3 93
11 125 27 51 26 122 90 114 103 -3 4 -1 8 5 8 24 0 54 85 56 155 1 39 1 50 -1
25 -6 -70 -13 -92 -27 -84 -9 5 -9 4 0 -6 9 -10 9 -20 -4 -44 -9 -17 -22 -35
-30 -39 -7 -5 -11 -12 -8 -17 10 -16 -39 -33 -96 -33 -42 0 -68 7 -108 28 -54
30 -97 77 -86 95 4 6 1 9 -7 8 -21 -5 -49 89 -44 149 5 59 26 109 45 105 7 -1
10 2 6 8 -3 5 1 10 10 10 9 0 14 4 10 9 -9 16 9 20 47 12 l36 -8 -11 31 c-5
17 -13 33 -16 36 -4 3 -17 28 -30 56 -13 28 -34 64 -47 80 -21 26 -21 23 5
-26z"/>
<path d="M6074 4608 c-30 -34 -47 -58 -42 -58 3 0 19 18 37 40 34 43 38 55 5
18z"/>
<path d="M6102 4525 c50 -14 117 -51 119 -66 3 -19 5 -25 18 -56 7 -18 17 -30
21 -28 5 3 10 0 13 -7 2 -7 2 -2 0 11 -12 71 -116 162 -184 160 -33 -1 -32 -1
13 -14z"/>
<path d="M6123 4452 c-1 -16 2 -20 7 -12 4 7 13 16 20 20 8 5 6 9 -7 12 -14 4
-18 -1 -20 -20z"/>
<path d="M6007 4454 c6 -15 23 -19 23 -5 0 5 -7 11 -14 14 -10 4 -13 1 -9 -9z"/>
<path d="M6100 4411 c0 -5 5 -13 10 -16 6 -3 10 -2 10 4 0 5 -4 13 -10 16 -5
3 -10 2 -10 -4z"/>
<path d="M6081 4394 c0 -11 3 -14 6 -6 3 7 2 16 -1 19 -3 4 -6 -2 -5 -13z"/>
<path d="M6251 4344 c0 -11 3 -14 6 -6 3 7 2 16 -1 19 -3 4 -6 -2 -5 -13z"/>
<path d="M6120 4343 c0 -6 8 -17 18 -24 16 -13 16 -13 2 6 -8 11 -16 22 -17
24 -2 2 -3 0 -3 -6z"/>
<path d="M6173 4303 c9 -2 25 -2 35 0 9 3 1 5 -18 5 -19 0 -27 -2 -17 -5z"/>
<path d="M6261 4244 c0 -11 3 -14 6 -6 3 7 2 16 -1 19 -3 4 -6 -2 -5 -13z"/>
<path d="M5956 4187 c3 -10 9 -15 12 -12 3 3 0 11 -7 18 -10 9 -11 8 -5 -6z"/>
<path d="M1893 4130 c37 -7 85 -40 59 -40 -7 0 -12 5 -12 10 0 6 -10 10 -22
10 -20 0 -18 -3 10 -16 17 -9 32 -21 32 -26 0 -5 5 -6 10 -3 15 9 12 -29 -6
-91 -24 -82 -71 -144 -134 -176 -61 -32 -96 -35 -128 -12 -20 14 -33 42 -14
30 5 -3 9 1 9 9 0 11 -4 12 -14 4 -10 -9 -13 -6 -14 15 -1 14 -2 32 -2 39 -1
6 4 33 11 59 9 35 16 46 27 42 15 -6 19 4 16 37 -1 9 5 22 14 29 18 15 20 0 3
-20 -7 -8 -1 -4 14 9 15 13 25 28 22 33 -6 10 37 28 50 20 5 -3 6 0 2 6 -3 6
2 15 11 21 17 10 17 10 1 11 -10 0 -18 -5 -18 -11 0 -5 -4 -8 -9 -4 -15 8
-114 -95 -136 -140 -30 -64 -31 -124 -3 -164 84 -125 268 -86 338 71 40 91 25
165 -45 227 -27 24 -44 31 -73 30 l-37 -1 38 -8z m-173 -124 c0 -3 -4 -8 -10
-11 -5 -3 -10 -1 -10 4 0 6 5 11 10 11 6 0 10 -2 10 -4z"/>
<path d="M6176 4108 c3 -4 0 -8 -6 -8 -6 0 -8 -5 -5 -11 4 -5 12 -8 18 -6 15
5 17 34 1 34 -7 0 -11 -4 -8 -9z"/>
<path d="M1853 4103 c9 -2 23 -2 30 0 6 3 -1 5 -18 5 -16 0 -22 -2 -12 -5z"/>
<path d="M3044 4037 c-206 -318 -205 -498 8 -1432 38 -170 74 -320 79 -332 5
-14 1 -44 -11 -87 -43 -152 -51 -242 -40 -433 6 -98 22 -270 35 -383 19 -164
28 -207 42 -217 10 -8 49 -13 99 -13 66 0 83 3 88 16 3 9 13 93 21 188 9 94
20 209 25 256 6 47 17 166 25 265 8 99 17 198 20 220 15 117 60 874 68 1135
l2 75 41 -65 c110 -175 358 -426 580 -586 l29 -21 -48 -21 c-69 -31 -148 -114
-191 -203 -19 -42 -54 -134 -77 -205 -23 -71 -68 -202 -100 -291 -32 -89 -56
-168 -53 -176 6 -18 47 -37 77 -37 42 0 87 41 209 188 182 221 442 553 492
628 72 110 44 268 -93 530 -82 155 -276 448 -372 561 -15 17 -40 73 -57 125
-37 113 -92 327 -92 356 0 21 -1 21 -57 -8 -188 -97 -444 -91 -653 15 l-49 25
-47 -73z m801 -205 c-6 -7 -35 18 -35 31 0 5 9 2 20 -8 11 -10 18 -20 15 -23z
m-40 -2 c3 -5 1 -10 -4 -10 -6 0 -11 5 -11 10 0 6 2 10 4 10 3 0 8 -4 11 -10z
m-65 -75 c7 -9 8 -15 2 -15 -5 0 -12 7 -16 15 -3 8 -4 15 -2 15 2 0 9 -7 16
-15z m-90 -65 c0 -5 -5 -10 -11 -10 -5 0 -7 5 -4 10 3 6 8 10 11 10 2 0 4 -4
4 -10z m-55 -50 c-3 -5 -12 -10 -18 -10 -7 0 -6 4 3 10 19 12 23 12 15 0z m35
-20 c-14 -4 -36 -8 -50 -8 -22 0 -22 1 5 8 17 4 39 8 50 8 16 0 15 -2 -5 -8z"/>
<path d="M1686 3925 c-3 -9 -6 -24 -5 -33 0 -9 5 -4 10 12 9 32 6 48 -5 21z"/>
<path d="M4974 3652 c4 -3 -4 -11 -97 -110 -76 -80 -97 -86 -274 -87 -102 0
-156 -4 -164 -12 -9 -9 -2 -10 27 -6 32 4 52 -3 109 -33 60 -32 79 -38 135
-38 113 0 203 66 244 179 10 28 27 64 38 82 19 32 19 32 -1 30 -11 -1 -19 -3
-17 -5z"/>
<path d="M1219 3603 c-9 -2 -44 -35 -78 -73 -67 -75 -114 -107 -219 -150 -75
-30 -207 -62 -258 -62 -52 0 -32 -14 58 -39 104 -29 243 -31 301 -5 79 35 148
118 181 216 15 47 36 121 33 119 -1 -1 -9 -3 -18 -6z"/>
<path d="M1887 3305 c-83 -29 -123 -96 -113 -186 8 -80 -3 -103 -69 -140 -62
-35 -75 -52 -75 -102 0 -25 13 -52 50 -102 28 -37 50 -71 50 -76 0 -19 -22
-61 -54 -104 -28 -36 -36 -56 -36 -89 0 -92 101 -224 201 -263 30 -11 78 -31
108 -42 40 -17 51 -18 42 -7 -7 8 -10 20 -6 26 3 5 1 10 -4 10 -6 0 -10 3 -9
8 1 4 -2 30 -7 57 -5 28 -9 55 -10 60 -2 26 -27 164 -36 198 -6 21 -7 47 -3
59 4 14 2 18 -5 14 -8 -5 -11 12 -12 56 0 72 -2 88 -25 221 -17 105 -14 144 6
55 12 -58 91 -511 118 -680 15 -99 19 -108 42 -117 57 -20 65 -23 54 -14 -20
16 -74 148 -89 219 -33 163 14 405 106 535 18 25 17 25 -17 52 -42 34 -43 59
-8 129 23 46 25 55 15 90 -15 48 -63 103 -112 129 -45 22 -51 23 -102 4z"/>
<path d="M5621 2918 c-1 -4 -26 -130 -56 -280 -53 -262 -64 -327 -44 -263 19
62 110 528 105 539 -2 6 -5 8 -5 4z"/>
<path d="M2654 2712 c-55 -26 -108 -75 -129 -119 -26 -55 -5 -167 28 -146 5 3
7 1 3 -5 -12 -19 54 -55 110 -60 99 -8 199 46 242 131 27 54 27 79 3 133 -24
52 -66 75 -151 80 -50 4 -74 0 -106 -14z m107 -14 c1 -17 2 -19 6 -5 7 26 30
21 37 -9 6 -21 9 -24 21 -14 8 7 15 9 15 4 0 -5 4 -3 9 4 6 11 13 7 30 -14 28
-36 27 -50 -10 -91 -29 -33 -29 -36 -13 -54 9 -11 15 -21 12 -24 -7 -7 -38 5
-38 15 0 4 -13 -4 -29 -19 -22 -21 -29 -34 -25 -52 5 -22 4 -23 -9 -6 -14 17
-15 16 -20 -3 -3 -11 -10 -20 -16 -20 -15 0 -14 30 2 31 6 0 1 5 -12 10 -13 5
-25 8 -25 7 -1 -2 -8 -16 -16 -33 -11 -24 -14 -26 -18 -12 -2 10 2 24 8 32 8
10 9 15 2 15 -6 0 -16 -8 -21 -19 -6 -10 -20 -21 -31 -24 -16 -4 -19 -2 -11 7
14 16 -2 38 -22 30 -16 -6 -25 10 -9 19 4 2 1 2 -5 1 -7 -2 -18 7 -24 19 -7
12 -17 25 -23 29 -8 5 -7 8 2 8 8 0 10 8 6 25 -6 23 -3 25 24 25 17 0 33 4 36
8 3 5 -8 6 -25 4 -34 -5 -37 6 -9 36 16 17 25 20 45 12 37 -14 75 7 45 25 -15
9 -12 22 8 28 9 2 25 8 35 12 14 6 16 4 10 -11 -4 -12 -3 -15 5 -10 7 4 12 14
12 22 0 25 40 17 41 -8z"/>
<path d="M6533 2710 c-17 -4 -51 -23 -75 -42 -57 -46 -76 -52 -105 -32 -29 19
-41 12 -22 -13 7 -10 10 -15 5 -11 -5 4 -16 -1 -25 -10 -9 -10 -12 -12 -7 -5
10 16 2 17 -27 2 -22 -12 -22 -12 -2 8 11 11 25 18 31 16 16 -6 10 35 -8 54
-9 8 -28 16 -43 16 -45 0 -78 -35 -113 -119 -34 -83 -77 -134 -114 -134 -13 0
-40 20 -69 52 -43 45 -50 50 -65 37 -14 -12 -16 -27 -11 -106 4 -50 11 -111
16 -135 25 -109 43 -219 48 -290 3 -43 9 -78 12 -78 3 0 18 22 33 48 81 145
235 316 399 444 81 63 204 138 225 138 5 -1 -4 -8 -20 -16 -53 -29 -190 -131
-253 -188 -108 -99 -276 -313 -331 -421 -11 -22 -29 -51 -41 -64 -26 -29 -27
-40 -3 -36 145 30 320 90 383 132 44 29 59 59 59 118 0 57 27 87 105 118 80
31 94 55 75 131 -17 73 -8 101 50 142 89 63 110 89 110 132 0 91 -96 141 -217
112z m-258 -146 c9 -9 13 -19 10 -22 -3 -3 -15 4 -27 16 -13 12 -17 22 -11 22
6 0 19 -7 28 -16z m-30 -62 c-8 -8 -35 20 -35 37 1 12 5 11 21 -8 11 -13 17
-26 14 -29z m-40 -29 c9 -25 0 -25 -24 1 -22 24 -22 24 -3 19 11 -3 23 -12 27
-20z m-60 -13 c-10 -11 -21 -18 -23 -15 -3 3 3 12 14 20 27 20 30 18 9 -5z
m-8 -66 c-9 -10 -45 29 -40 42 4 10 11 7 25 -12 11 -14 18 -27 15 -30z m43 40
c0 -2 -9 -4 -21 -4 -11 0 -18 4 -14 10 5 8 35 3 35 -6z m-90 -68 c0 -18 -1
-18 -20 -1 -16 14 -17 21 -8 32 9 11 13 11 19 1 5 -7 9 -22 9 -32z"/>
<path d="M5303 2668 c9 -25 163 -252 182 -268 13 -11 -167 265 -183 280 -3 3
-2 -3 1 -12z"/>
<path d="M1041 2494 c29 -31 111 -103 277 -242 89 -74 126 -111 120 -118 -7
-6 -102 67 -179 138 -151 140 -214 193 -228 191 -10 -2 -11 0 -3 3 10 5 10 9
1 20 -6 8 -17 14 -23 14 -6 0 -4 -5 4 -10 13 -9 13 -11 0 -20 -9 -6 -10 -10
-3 -10 12 0 143 -123 143 -134 0 -3 -12 -6 -27 -6 -22 0 -25 -2 -13 -10 8 -5
28 -10 43 -10 16 0 26 -4 22 -10 -3 -5 -17 -10 -31 -10 -40 0 -27 -20 14 -21
56 -1 96 -9 103 -21 4 -6 12 -7 19 -3 9 5 11 4 6 -3 -4 -6 4 -28 16 -49 44
-71 50 -91 29 -102 -10 -6 -21 -8 -24 -5 -3 4 -20 -4 -36 -16 -17 -11 -36 -18
-42 -14 -7 4 -9 3 -6 -3 4 -6 0 -14 -9 -17 -8 -3 -12 -2 -9 3 3 5 0 13 -6 17
-8 4 -9 3 -5 -4 5 -8 -1 -12 -14 -12 -12 0 -18 4 -15 10 3 6 -1 7 -10 3 -12
-4 -13 -8 -5 -13 9 -6 9 -9 -1 -13 -8 -4 0 -4 16 -2 29 5 29 5 -5 -9 -51 -21
-71 -19 -105 9 l-30 25 30 26 c18 16 22 22 9 15 -11 -5 -27 -17 -34 -27 -13
-14 -10 -20 18 -45 21 -19 43 -29 63 -29 25 0 199 73 304 128 17 9 35 17 40
18 6 1 27 9 48 18 38 17 51 32 19 24 -10 -3 -19 0 -19 6 0 6 -10 34 -21 61
l-21 50 0 -38 c-1 -45 -10 -42 -52 15 -16 23 -29 36 -29 31 0 -6 -15 -10 -32
-9 -25 1 -33 6 -33 21 0 11 -10 36 -23 55 -12 19 -22 39 -22 44 0 5 -2 7 -5 4
-3 -3 -1 -17 5 -32 8 -21 7 -26 -3 -20 -12 7 -130 92 -205 146 -52 38 -62 34
-21 -8z"/>
<path d="M4680 2509 c-6 -11 -10 -38 -9 -60 3 -39 2 -40 -46 -63 -66 -30 -111
-83 -131 -152 -28 -97 6 -202 94 -290 102 -102 236 -132 343 -76 l53 27 2 65
c1 46 9 82 28 125 23 49 27 69 22 110 -4 28 -8 67 -11 89 -5 45 -44 99 -89
127 -42 26 -121 25 -163 -1 l-33 -20 0 39 c0 81 -35 128 -60 80z m301 -171
c15 -27 3 -65 -25 -83 -51 -34 -130 34 -99 84 27 44 101 43 124 -1z"/>
<path d="M5674 2454 c-84 -68 -114 -98 -58 -58 45 32 140 114 132 114 -3 0
-36 -25 -74 -56z"/>
<path d="M1481 2407 c2 -1 13 -9 24 -17 19 -14 19 -14 6 3 -7 9 -18 17 -24 17
-6 0 -8 -1 -6 -3z"/>
<path d="M1428 2393 c7 -3 16 -2 19 1 4 3 -2 6 -13 5 -11 0 -14 -3 -6 -6z"/>
<path d="M5519 2343 c-17 -4 -38 -103 -59 -278 -6 -49 -13 -91 -15 -93 -7 -7
-118 59 -170 101 -84 68 -93 72 -36 18 30 -29 89 -73 132 -98 l78 -45 -3 -82
c-2 -44 -2 -62 1 -39 3 36 8 42 31 46 l27 4 -27 2 c-24 1 -26 4 -23 34 3 17 9
77 15 132 19 174 40 278 58 292 18 13 17 13 -9 6z"/>
<path d="M1325 2300 c3 -5 8 -10 11 -10 2 0 4 5 4 10 0 6 -5 10 -11 10 -5 0
-7 -4 -4 -10z"/>
<path d="M1588 2283 c6 -2 18 -2 25 0 6 3 1 5 -13 5 -14 0 -19 -2 -12 -5z"/>
<path d="M1675 2250 c0 -15 4 -26 9 -22 5 3 6 0 2 -6 -4 -7 -16 -12 -27 -12
-11 0 -17 5 -14 10 3 6 -1 10 -9 10 -10 0 -13 -6 -9 -17 5 -13 2 -15 -11 -10
-9 4 -15 3 -12 -2 3 -5 0 -14 -8 -20 -16 -13 -10 -55 10 -72 7 -6 29 -11 49
-11 19 0 38 -4 41 -9 3 -5 12 -9 20 -9 18 0 13 49 -13 135 -20 62 -28 73 -28
35z"/>
<path d="M945 2249 c-4 -6 -5 -12 -2 -15 2 -3 7 2 10 11 7 17 1 20 -8 4z"/>
<path d="M1545 2191 c-10 -17 17 -24 31 -7 8 9 9 11 2 6 -16 -13 -31 -13 -23
0 3 6 4 10 1 10 -3 0 -7 -4 -11 -9z"/>
<path d="M988 2173 c6 -2 18 -2 25 0 6 3 1 5 -13 5 -14 0 -19 -2 -12 -5z"/>
<path d="M1066 2161 c17 -4 37 -11 45 -15 8 -4 5 0 -5 8 -11 9 -31 16 -45 15
-24 -1 -24 -2 5 -8z"/>
<path d="M1099 2103 c-13 -16 -12 -17 4 -4 16 13 21 21 13 21 -2 0 -10 -8 -17
-17z"/>
<path d="M1290 2100 c-12 -7 -10 -9 8 -7 12 0 22 5 22 9 0 11 -12 10 -30 -2z"/>
<path d="M1560 2104 c0 -9 104 -114 113 -114 7 0 1 60 -7 67 -4 4 -11 1 -16
-7 -7 -12 -17 -7 -50 25 -22 21 -40 35 -40 29z"/>
<path d="M2004 2086 c-12 -14 -41 -30 -65 -36 -74 -20 -100 -56 -68 -96 16
-20 -3 -23 -24 -3 -23 21 -33 24 -42 9 -3 -5 0 -7 8 -4 8 3 18 -5 25 -20 8
-18 16 -23 31 -19 12 3 21 10 21 15 0 5 4 7 9 4 5 -3 49 -8 99 -10 l90 -5 6
31 c3 17 6 57 6 90 0 54 -2 59 -19 53 -11 -3 -22 -1 -26 5 -10 16 -28 11 -51
-14z"/>
<path d="M2215 2040 c4 -6 11 -8 16 -5 14 9 11 15 -7 15 -8 0 -12 -5 -9 -10z"/>
<path d="M1103 2013 c0 -9 4 -10 14 -2 7 6 13 12 13 14 0 1 -6 2 -13 2 -8 0
-14 -6 -14 -14z"/>
<path d="M5834 2014 c-18 -14 -18 -15 4 -4 12 6 22 13 22 15 0 8 -5 6 -26 -11z"/>
<path d="M1390 2004 c0 -12 -6 -15 -27 -10 -22 5 -24 4 -11 -4 9 -6 31 -8 49
-5 24 4 30 2 26 -8 -4 -10 5 -14 31 -15 39 -2 57 -19 40 -39 -8 -10 -5 -13 13
-12 13 0 19 3 12 5 -7 3 -10 11 -7 17 2 7 -12 28 -32 47 -25 24 -38 31 -41 22
-4 -10 -10 -10 -29 3 -22 14 -24 14 -24 -1z"/>
<path d="M5778 1984 c-38 -20 -36 -28 2 -9 17 9 30 18 30 20 0 7 -1 6 -32 -11z"/>
<path d="M1322 1955 c6 -30 -14 -49 -42 -42 -31 8 -24 -1 19 -22 l38 -20 20
22 c33 36 36 67 7 78 -39 14 -47 11 -42 -16z"/>
<path d="M1583 1966 c-47 -21 -55 -62 -18 -94 32 -27 77 -26 122 3 35 23 38
41 11 69 -29 32 -74 40 -115 22z"/>
<path d="M1780 1961 c0 -7 -5 -9 -12 -5 -7 5 -8 3 -3 -5 5 -9 10 -10 18 -2 6
6 8 14 4 18 -4 3 -7 1 -7 -6z"/>
<path d="M5717 1954 c-3 -3 -34 -17 -69 -30 -35 -14 -49 -22 -33 -19 34 7 136
53 119 54 -6 1 -13 -2 -17 -5z"/>
<path d="M2158 1905 c-27 -23 -41 -48 -15 -27 8 7 18 7 27 2 8 -5 17 -7 21 -4
9 5 6 -34 -5 -58 -4 -10 -17 -20 -28 -24 -11 -3 -18 -8 -15 -10 2 -2 36 10 76
28 58 25 69 33 55 41 -13 8 -14 11 -3 18 11 7 10 9 -4 9 -14 0 -17 -5 -12 -20
9 -28 -1 -25 -38 10 -18 16 -36 30 -42 30 -5 0 -3 4 5 10 8 5 12 11 10 14 -3
2 -17 -6 -32 -19z"/>
<path d="M2360 1897 c0 -9 -5 -17 -11 -17 -5 0 -7 4 -4 10 3 6 -1 7 -9 4 -24
-9 -20 -33 5 -27 21 6 36 29 25 40 -3 4 -6 -1 -6 -10z"/>
<path d="M1417 1878 c4 -7 6 -21 5 -30 -2 -12 9 -23 35 -35 21 -9 41 -19 46
-21 4 -2 4 3 1 12 -3 8 -9 15 -12 14 -4 -1 -18 2 -32 6 -24 8 -24 9 -5 17 16
6 17 8 3 8 -9 1 -20 10 -23 21 -3 11 -11 20 -16 20 -6 0 -7 -6 -2 -12z"/>
<path d="M1723 1883 c-18 -6 -16 -23 1 -23 17 0 30 16 19 23 -5 2 -14 2 -20 0z"/>
<path d="M5518 1883 c7 -3 16 -2 19 1 4 3 -2 6 -13 5 -11 0 -14 -3 -6 -6z"/>
<path d="M1951 1848 c-15 -15 -22 -17 -19 -8 4 11 -1 16 -13 16 -15 0 -19 -8
-19 -33 0 -23 5 -33 15 -33 8 0 15 4 15 9 0 5 12 23 26 40 30 36 28 40 -5 9z"/>
<path d="M2105 1861 c-3 -6 -17 -11 -30 -11 -16 0 -25 -7 -29 -25 -8 -31 -34
-44 -48 -24 -8 12 -9 11 -5 -1 2 -8 -3 -21 -12 -28 -14 -11 -14 -11 3 -5 14 5
17 3 11 -6 -5 -8 -19 -11 -40 -7 -27 5 -39 2 -59 -17 -14 -14 -26 -32 -26 -41
0 -9 -6 -16 -14 -16 -13 0 -31 -29 -22 -37 2 -2 61 23 132 55 71 33 137 62
146 65 15 5 17 14 11 54 -7 54 -8 59 -18 44z"/>
<path d="M2160 1861 c0 -5 5 -13 10 -16 6 -3 10 -2 10 4 0 5 -4 13 -10 16 -5
3 -10 2 -10 -4z"/>
<path d="M1390 1850 c0 -5 5 -10 10 -10 6 0 10 5 10 10 0 6 -4 10 -10 10 -5 0
-10 -4 -10 -10z"/>
<path d="M5180 1810 c42 -37 182 -107 232 -115 36 -7 37 -8 43 -64 3 -31 10
-74 15 -96 7 -32 8 -28 3 25 -3 36 -9 99 -13 140 -4 41 -8 58 -8 38 -2 -27 -7
-38 -18 -38 -24 0 -144 54 -220 99 -60 35 -64 37 -34 11z"/>
<path d="M1665 1721 c-3 -6 4 -15 15 -21 13 -7 20 -7 20 0 0 5 -5 10 -11 10
-5 0 -7 5 -4 10 3 6 2 10 -4 10 -5 0 -12 -4 -16 -9z"/>
<path d="M1767 1723 c-14 -13 -7 -43 11 -43 14 0 14 2 3 9 -8 5 -11 16 -8 25
7 17 5 20 -6 9z"/>
<path d="M1801 1683 c-1 -7 -13 -13 -28 -13 -28 -1 -28 -1 7 -20 39 -20 45
-16 31 21 -5 13 -10 18 -10 12z"/>
<path d="M3477 1584 c-16 -13 -26 -30 -24 -37 4 -9 6 -9 6 1 1 7 6 10 13 6 6
-4 8 -3 4 4 -3 6 4 18 16 26 12 9 20 18 17 20 -2 2 -17 -7 -32 -20z"/>
<path d="M3496 1572 c-2 -4 -1 -14 4 -22 7 -11 9 -9 7 8 -1 24 -3 26 -11 14z"/>
<path d="M3430 1537 c0 -30 91 -165 168 -248 18 -20 40 -45 47 -55 8 -11 15
-14 15 -8 0 5 -9 20 -20 32 -12 12 -18 22 -14 22 3 0 1 7 -6 15 -7 8 -16 13
-20 10 -4 -2 -13 7 -20 20 -7 14 -17 25 -21 25 -5 0 -5 7 -2 17 4 11 3 14 -5
9 -7 -4 -24 10 -42 35 -29 41 -30 43 -13 63 15 18 16 19 1 8 -14 -11 -20 -8
-42 25 -14 21 -26 34 -26 30z"/>
<path d="M5795 1520 c-77 -37 -103 -72 -108 -150 -6 -72 5 -108 45 -148 43
-44 88 -62 160 -62 73 0 129 28 161 80 18 28 22 50 22 115 0 68 -4 85 -23 113
-23 32 -69 62 -94 62 -7 0 2 -8 20 -17 46 -22 82 -78 82 -126 0 -74 -62 -147
-123 -147 -14 0 -29 -5 -33 -11 -11 -19 -134 11 -134 33 0 6 -8 7 -17 4 -10
-4 -14 -4 -11 0 4 3 -4 21 -17 39 -39 50 -32 107 19 163 31 35 74 54 136 62
l55 7 -50 1 c-31 1 -65 -6 -90 -18z"/>
<path d="M3511 1519 c-1 -8 6 -24 15 -35 15 -19 15 -19 6 1 -5 11 -12 27 -15
35 -5 13 -6 13 -6 -1z"/>
<path d="M3540 1451 c0 -6 4 -13 10 -16 6 -3 7 1 4 9 -7 18 -14 21 -14 7z"/>
<path d="M5807 1432 c-34 -35 -34 -60 -2 -94 25 -27 70 -46 81 -35 3 3 -8 8
-25 12 -31 7 -71 47 -71 70 0 32 38 59 91 66 l54 6 -51 2 c-43 1 -54 -3 -77
-27z"/>
<path d="M5950 1442 c0 -12 19 -26 26 -19 2 2 -2 10 -11 17 -9 8 -15 8 -15 2z"/>
<path d="M3557 1407 c-3 -8 1 -14 8 -14 7 0 11 6 8 14 -3 7 -6 13 -8 13 -2 0
-5 -6 -8 -13z"/>
<path d="M3596 1341 c-3 -5 1 -11 9 -14 9 -4 12 -1 8 9 -6 16 -10 17 -17 5z"/>
<path d="M5930 1319 c0 -5 5 -7 10 -4 6 3 10 8 10 11 0 2 -4 4 -10 4 -5 0 -10
-5 -10 -11z"/>
<path d="M4675 1234 c-33 -13 -99 -38 -146 -53 -88 -29 -134 -50 -127 -56 2
-3 35 6 74 19 38 13 103 31 144 41 82 18 143 44 142 60 -2 18 -26 15 -87 -11z"/>
<path d="M3111 929 c-1 -8 6 -24 15 -35 15 -19 15 -19 6 1 -5 11 -12 27 -15
35 -5 13 -6 13 -6 -1z"/>
<path d="M3137 863 c-4 -3 -7 -13 -7 -22 1 -13 3 -13 11 2 11 19 8 33 -4 20z"/>
<path d="M3101 847 c-1 -22 29 -130 34 -125 2 2 -5 35 -15 73 -10 39 -19 62
-19 52z"/>
<path d="M3146 825 c-9 -26 -7 -32 5 -12 6 10 9 21 6 23 -2 3 -7 -2 -11 -11z"/>
<path d="M3176 760 c3 -14 11 -32 16 -40 6 -10 7 -7 2 10 -3 14 -11 32 -16 40
-6 10 -7 7 -2 -10z"/>
<path d="M3151 675 c-1 -15 55 -109 73 -124 11 -9 19 -10 33 -1 16 10 16 10
-3 5 -24 -6 -50 18 -38 36 4 8 3 9 -4 5 -7 -4 -21 12 -36 41 -14 26 -25 44
-25 38z"/>
<path d="M3261 531 c-10 -6 -9 -10 5 -15 20 -8 25 -4 16 11 -4 7 -13 9 -21 4z"/>
</g>
</svg>
